<svg width="22" height="22" viewBox="0 0 22 22" fill="none" xmlns="http://www.w3.org/2000/svg">
<path fill-rule="evenodd" clip-rule="evenodd" d="M11.0015 0C13.9422 0 16.7057 1.1433 18.7815 3.22008C23.0722 7.51078 23.0722 14.4914 18.7815 18.7821C16.6781 20.8865 13.846 22.0001 10.977 22.0001C9.41298 22.0001 7.83877 21.6695 6.36588 20.9878C5.9319 20.8138 5.52555 20.6501 5.23384 20.6501C4.89812 20.6521 4.44673 20.8077 4.0107 20.9581C3.11612 21.2652 2.0025 21.648 1.17855 20.8271C0.357665 20.0052 0.736377 18.8947 1.04139 18.0011C1.19186 17.561 1.34641 17.1065 1.34641 16.7626C1.34641 16.4801 1.21028 16.1198 1.00148 15.6009C-0.915627 11.4606 -0.0292353 6.47086 3.22257 3.2211C5.29832 1.14433 8.06088 0 11.0015 0ZM11.0025 1.53532C8.47132 1.53532 6.09362 2.51997 4.30753 4.30708C1.50915 7.10341 0.747636 11.3972 2.4109 14.9929C2.65041 15.5855 2.88173 16.1628 2.88173 16.7626C2.88173 17.3614 2.676 17.9643 2.49483 18.4965C2.34539 18.9346 2.11919 19.5958 2.26453 19.7411C2.40681 19.8885 3.07211 19.6562 3.51121 19.5057C4.03834 19.3256 4.63609 19.1188 5.22872 19.1147C5.82238 19.1147 6.38226 19.3399 6.97489 19.5784C10.6054 21.257 14.8992 20.4934 17.6965 17.6971C21.3875 14.0042 21.3875 7.99697 17.6965 4.30606C15.9094 2.51895 13.5328 1.53532 11.0025 1.53532ZM15.0424 10.402C15.6074 10.402 16.0659 10.8595 16.0659 11.4255C16.0659 11.9916 15.6074 12.4491 15.0424 12.4491C14.4774 12.4491 14.0147 11.9916 14.0147 11.4255C14.0147 10.8595 14.4682 10.402 15.0332 10.402H15.0424ZM10.9392 10.402C11.5042 10.402 11.9627 10.8595 11.9627 11.4255C11.9627 11.9916 11.5042 12.4491 10.9392 12.4491C10.3742 12.4491 9.91155 11.9916 9.91155 11.4255C9.91155 10.8595 10.364 10.402 10.93 10.402H10.9392ZM6.83559 10.402C7.40059 10.402 7.85914 10.8595 7.85914 11.4255C7.85914 11.9916 7.40059 12.4491 6.83559 12.4491C6.27059 12.4491 5.80795 11.9916 5.80795 11.4255C5.80795 10.8595 6.26138 10.402 6.82638 10.402H6.83559Z" fill="#9CA4AB"/>
</svg>
