<svg width="18" height="21" viewBox="0 0 18 21" fill="none" xmlns="http://www.w3.org/2000/svg">
<path fill-rule="evenodd" clip-rule="evenodd" d="M11.7869 0C15.2038 0 17.1641 1.69132 17.1641 4.63779V19.2805C17.1641 19.895 16.8478 20.448 16.3159 20.7572C15.786 21.0675 15.1474 21.0736 14.6115 20.7713L8.60772 17.3796L2.54857 20.7784C2.28666 20.9255 1.99957 21 1.71147 21C1.41431 21 1.11714 20.9204 0.847173 20.7613C0.316305 20.452 0 19.899 0 19.2855V4.45345C0 1.62282 1.96129 0 5.38121 0H11.7869ZM11.7869 1.51101H5.38121C2.8135 1.51101 1.51101 2.50022 1.51101 4.45345V19.2855C1.51101 19.3802 1.56541 19.4316 1.61074 19.4578C1.65607 19.486 1.72759 19.5061 1.81019 19.4598L8.23903 15.8535C8.46871 15.7256 8.74975 15.7246 8.98044 15.8545L15.3539 19.4548C15.4375 19.5031 15.509 19.4809 15.5543 19.4537C15.5997 19.4266 15.6531 19.3752 15.6531 19.2805L15.6527 4.523C15.6451 3.65601 15.4773 1.51101 11.7869 1.51101ZM12.2289 6.77789C12.6459 6.77789 12.9844 7.11635 12.9844 7.53339C12.9844 7.95043 12.6459 8.2889 12.2289 8.2889H4.85719C4.44015 8.2889 4.10169 7.95043 4.10169 7.53339C4.10169 7.11635 4.44015 6.77789 4.85719 6.77789H12.2289Z" fill="#9CA4AB"/>
</svg>
