<svg width="16" height="20" viewBox="0 0 16 20" fill="none" xmlns="http://www.w3.org/2000/svg">
<path fill-rule="evenodd" clip-rule="evenodd" d="M15.9433 16.299C15.9433 19.6165 11.3938 20 7.97267 20L7.72784 19.9998C5.54816 19.9945 0 19.8569 0 16.2789C0 13.0291 4.36665 12.5948 7.76178 12.5784L8.21748 12.5781C10.397 12.5834 15.9433 12.721 15.9433 16.299ZM7.97267 14.0877C3.68387 14.0877 1.50978 14.8245 1.50978 16.2789C1.50978 17.7464 3.68387 18.4902 7.97267 18.4902C12.2605 18.4902 14.4335 17.7534 14.4335 16.299C14.4335 14.8315 12.2605 14.0877 7.97267 14.0877ZM7.97267 0C10.9198 0 13.3163 2.39754 13.3163 5.34464C13.3163 8.29173 10.9198 10.6883 7.97267 10.6883H7.94046C4.9994 10.6792 2.61696 8.28066 2.62699 5.34162C2.62699 2.39754 5.02456 0 7.97267 0ZM7.97267 1.43731C5.8177 1.43731 4.06432 3.18967 4.06432 5.34464C4.05729 7.49256 5.79757 9.2439 7.94348 9.25196L7.97267 9.97061V9.25196C10.1266 9.25196 11.879 7.49859 11.879 5.34464C11.879 3.18967 10.1266 1.43731 7.97267 1.43731Z" fill="#FE970F"/>
</svg>
