<svg width="18" height="21" viewBox="0 0 18 21" fill="none" xmlns="http://www.w3.org/2000/svg">
<path d="M17.5289 13.2213L15.727 11.4095V6.94486C15.751 5.28697 15.1743 3.6764 14.1035 2.41052C13.0326 1.14464 11.5399 0.308951 9.901 0.0577565C8.94983 -0.0675055 7.98289 0.0115238 7.06468 0.289571C6.14648 0.567618 5.29813 1.03829 4.57624 1.67018C3.85435 2.30207 3.27552 3.08065 2.87837 3.95397C2.48122 4.82729 2.27489 5.77526 2.27314 6.73464V11.4095L0.471282 13.2213C0.244954 13.4514 0.0914736 13.7431 0.030027 14.06C-0.0314197 14.3768 0.00189397 14.7048 0.125803 15.0028C0.249712 15.3008 0.458719 15.5557 0.726696 15.7356C0.994672 15.9155 1.30973 16.0124 1.63248 16.0142H4.99595V16.3546C5.0427 17.3708 5.49041 18.3271 6.24095 19.0138C6.9915 19.7006 7.98368 20.0618 9.00007 20.0183C10.0165 20.0618 11.0086 19.7006 11.7592 19.0138C12.5097 18.3271 12.9574 17.3708 13.0042 16.3546V16.0142H16.3677C16.6904 16.0124 17.0055 15.9155 17.2734 15.7356C17.5414 15.5557 17.7504 15.3008 17.8743 15.0028C17.9983 14.7048 18.0316 14.3768 17.9701 14.06C17.9087 13.7431 17.7552 13.4514 17.5289 13.2213ZM11.0021 16.3546C10.9466 16.8361 10.7075 17.2776 10.3345 17.5871C9.96156 17.8967 9.48356 18.0504 9.00007 18.0163C8.51659 18.0504 8.03858 17.8967 7.66563 17.5871C7.29267 17.2776 7.05353 16.8361 6.99801 16.3546V16.0142H11.0021V16.3546ZM2.50338 14.0121L3.68459 12.8309C3.87196 12.6447 4.0206 12.4232 4.12197 12.1792C4.22333 11.9353 4.27541 11.6736 4.2752 11.4095V6.73464C4.27575 6.05934 4.42074 5.39198 4.70043 4.77733C4.98013 4.16268 5.38807 3.61498 5.89687 3.17097C6.39881 2.71618 6.99358 2.3759 7.64001 2.17367C8.28645 1.97144 8.9691 1.9121 9.64073 1.99976C10.7984 2.18773 11.8492 2.78758 12.5997 3.68888C13.3501 4.59018 13.7498 5.73224 13.7249 6.90481V11.4095C13.7234 11.6729 13.7739 11.9341 13.8736 12.1781C13.9732 12.422 14.12 12.6438 14.3055 12.8309L15.4968 14.0121H2.50338Z" fill="#0D0140"/>
</svg>
