<svg width="27" height="27" viewBox="0 0 27 27" fill="none" xmlns="http://www.w3.org/2000/svg">
<path fill-rule="evenodd" clip-rule="evenodd" d="M26.0312 17.201C26.589 17.2429 27.0064 17.7305 26.9645 18.2883L26.7079 21.6771C26.4958 24.473 24.1362 26.6625 21.3335 26.6625H5.66568C2.86303 26.6625 0.503397 24.473 0.291341 21.6771L0.0347124 18.2883C-0.00715858 17.7305 0.411551 17.2429 0.96938 17.201C1.52991 17.1807 2.01345 17.5765 2.05667 18.1357L2.31195 21.5232C2.44432 23.2682 3.91656 24.6365 5.66568 24.6365H21.3335C23.0826 24.6365 24.5562 23.2682 24.6873 21.5232L24.9439 18.1357C24.9871 17.5765 25.4828 17.1794 26.0312 17.201ZM15.2422 0C17.2722 0 18.954 1.52122 19.2073 3.48343L21.8674 3.48461C24.6985 3.48461 27 5.79291 27 8.63204V13.277C27 13.6376 26.8082 13.9699 26.4989 14.1509C23.165 16.1033 18.9418 17.2421 14.5124 17.394L14.5129 19.8233C14.5129 20.3825 14.0591 20.8363 13.4999 20.8363C12.9407 20.8363 12.4869 20.3825 12.4869 19.8233L12.486 17.3943C8.06108 17.2438 3.83748 16.1048 0.501101 14.1509C0.190445 13.9699 0 13.6376 0 13.277V8.61853C0 5.78751 2.30831 3.48461 5.14608 3.48461L7.79247 3.48343C8.04576 1.52122 9.72752 0 11.7575 0H15.2422ZM21.8674 5.51062H5.14608C3.42531 5.51062 2.02601 6.90452 2.02601 8.61853V12.6868C5.23213 14.4288 9.27405 15.3836 13.4811 15.3854L13.4999 15.3837L13.5149 15.3842L14.158 15.3775C18.1368 15.2827 21.9324 14.3387 24.974 12.6868V8.63204C24.974 6.90992 23.5815 5.51062 21.8674 5.51062ZM15.2422 2.02601H11.7575C10.848 2.02601 10.0803 2.64499 9.85352 3.48377H17.1462C16.9194 2.64499 16.1517 2.02601 15.2422 2.02601Z" fill="#0D0140"/>
</svg>
