<svg width="35" height="28" viewBox="0 0 35 28" fill="none" xmlns="http://www.w3.org/2000/svg">
<path d="M28.715 10.36C28.26 4.57125 23.4037 0 17.5 0C12.45 0 8.115 3.28 6.71625 8.06375C2.72625 9.44875 0 13.2288 0 17.5C0 23.0138 4.48625 27.5 10 27.5H26.25C31.075 27.5 35 23.575 35 18.75C35 14.8138 32.4125 11.435 28.715 10.36ZM23.655 14.2288C23.4613 14.695 23.005 15 22.5 15H20V20C20 21.38 18.88 22.5 17.5 22.5C16.12 22.5 15 21.38 15 20V15H12.5C11.995 15 11.5388 14.695 11.345 14.2288C11.1512 13.7613 11.2587 13.2238 11.6163 12.8663L16.6163 7.86625C16.86 7.6225 17.18 7.5 17.5 7.5C17.82 7.5 18.14 7.6225 18.3838 7.86625L23.3838 12.8663C23.7413 13.2238 23.8487 13.7613 23.655 14.2288Z" fill="#0D0140"/>
</svg>
