<svg width="19" height="20" viewBox="0 0 19 20" fill="none" xmlns="http://www.w3.org/2000/svg">
<path d="M16.3254 7.46777C16.3254 7.46777 15.7824 14.203 15.4674 17.0401C15.3174 18.3952 14.4803 19.1892 13.1093 19.2142C10.5002 19.2612 7.88808 19.2642 5.27998 19.2092C3.96093 19.1822 3.1379 18.3782 2.9909 17.0471C2.67389 14.185 2.13387 7.46777 2.13387 7.46777" stroke="#F64747" stroke-width="1.5" stroke-linecap="round" stroke-linejoin="round"/>
<path d="M17.7086 4.23917H0.750027" stroke="#F64747" stroke-width="1.5" stroke-linecap="round" stroke-linejoin="round"/>
<path d="M14.4411 4.23916C13.6561 4.23916 12.9801 3.68413 12.826 2.91511L12.583 1.69906C12.433 1.13804 11.925 0.750027 11.346 0.750027H7.11284C6.53382 0.750027 6.0258 1.13804 5.87579 1.69906L5.63278 2.91511C5.47878 3.68413 4.80275 4.23916 4.01773 4.23916" stroke="#F64747" stroke-width="1.5" stroke-linecap="round" stroke-linejoin="round"/>
</svg>
