<svg width="17" height="14" viewBox="0 0 17 14" fill="none" xmlns="http://www.w3.org/2000/svg">
<path d="M17 6.97989C17 7.37109 16.7093 7.6944 16.3321 7.74556L16.2273 7.75262L2.64376 7.752L7.55108 12.6393C7.8535 12.9404 7.85455 13.4297 7.55343 13.7321C7.27969 14.007 6.85045 14.0329 6.54746 13.8091L6.46063 13.7344L0.227299 7.52788C0.187436 7.48819 0.152812 7.44523 0.123425 7.39986C0.115124 7.38621 0.106676 7.37224 0.0986661 7.35799C0.0912988 7.34578 0.0846408 7.33309 0.0783602 7.32027C0.069637 7.30161 0.0611141 7.28233 0.0533754 7.26266C0.0470869 7.2475 0.041838 7.23275 0.0370489 7.21788C0.0313559 7.19945 0.025824 7.1798 0.0210664 7.15985C0.0175291 7.14593 0.0147268 7.13252 0.0122841 7.11907C0.00884709 7.09905 0.00592295 7.07833 0.00383597 7.05737C0.00203393 7.04138 0.000949166 7.02554 0.000349796 7.00968C0.00019455 7.00007 0 6.99 0 6.97989L0.000387134 6.94996C0.000978643 6.93479 0.00201428 6.91964 0.003496 6.90452L0 6.97989C0 6.93113 0.00451591 6.88342 0.0131547 6.83716C0.0151572 6.82611 0.0175448 6.81477 0.020188 6.80348C0.0256766 6.78022 0.0320201 6.75782 0.0393246 6.73585C0.042909 6.72494 0.0470869 6.71329 0.0515497 6.70172C0.0605796 6.67846 0.0703955 6.6563 0.081192 6.63471C0.086209 6.62456 0.0918254 6.61393 0.0977091 6.60341C0.107366 6.58625 0.117313 6.56994 0.127833 6.55404C0.135255 6.54279 0.143473 6.53107 0.152055 6.51955L0.158743 6.51064C0.179561 6.48344 0.202147 6.45767 0.226326 6.43349L0.227254 6.43277L6.46059 0.225196C6.76298 -0.0759468 7.25224 -0.0749339 7.55339 0.227459C7.82715 0.502362 7.8512 0.931702 7.62612 1.23375L7.55112 1.32026L2.64582 6.20654L16.2273 6.20716C16.654 6.20716 17 6.55312 17 6.97989Z" fill="#0D0140"/>
</svg>
