<svg width="20" height="24" viewBox="0 0 20 24" fill="none" xmlns="http://www.w3.org/2000/svg">
<path d="M16.3648 13.4529C15.7047 10.1304 18.8583 8.1818 18.8583 8.1818C18.8583 8.1818 17.6296 6.40416 15.5646 5.94685C13.5007 5.48854 12.4677 6.06116 11.4367 6.49063C10.4047 6.92116 9.88977 6.92116 9.88977 6.92116C8.40052 6.92116 7.31186 5.34435 4.47446 6.06221C2.51969 6.55552 0.461882 8.81209 0.0900839 11.5053C-0.281714 14.1996 0.52061 17.6375 2.06753 20.3019C3.61446 22.9684 5.19027 23.9705 6.30872 23.9993C7.42722 24.0271 8.54366 23.198 9.88977 22.9961C11.2369 22.7963 12.066 23.4843 13.3874 23.8561C14.7036 24.2269 15.165 23.8829 16.681 22.5935C18.2012 21.304 19.5771 17.6056 19.5771 17.6056C19.5771 17.6056 17.025 16.7775 16.3648 13.4529Z" fill="#0D0140"/>
<path d="M13.4423 3.79729C14.9047 2.30704 14.4094 0 14.4094 0C14.4094 0 12.3557 0.360483 10.9797 1.79205C9.60479 3.22467 9.83239 5.4874 9.83239 5.4874C9.83239 5.4874 11.9798 5.28658 13.4423 3.79729Z" fill="#0D0140"/>
</svg>
