<svg width="15" height="8" viewBox="0 0 15 8" fill="none" xmlns="http://www.w3.org/2000/svg">
<path d="M7.48828 7.48828C7.23838 7.48877 6.99619 7.40174 6.80376 7.24228L0.386382 1.89447C0.16796 1.71292 0.0306015 1.45204 0.00452586 1.16922C-0.0215498 0.8864 0.0657928 0.604805 0.247339 0.386382C0.428885 0.167959 0.689764 0.0306015 0.972585 0.00452588C1.25541 -0.0215498 1.537 0.0657923 1.75542 0.247338L7.48828 5.03898L13.2211 0.418469C13.3305 0.329625 13.4564 0.263278 13.5916 0.223243C13.7267 0.183207 13.8684 0.170272 14.0085 0.185181C14.1487 0.20009 14.2845 0.242548 14.4082 0.310116C14.5319 0.377685 14.641 0.469031 14.7292 0.578904C14.8272 0.688878 14.9014 0.817895 14.9471 0.957873C14.9929 1.09785 15.0093 1.24577 14.9952 1.39237C14.9812 1.53897 14.937 1.68108 14.8654 1.80981C14.7939 1.93854 14.6966 2.05111 14.5795 2.14047L8.16211 7.30646C7.96415 7.4407 7.7269 7.50472 7.48828 7.48828Z" fill="#0D0140"/>
</svg>
