<svg width="17" height="21" viewBox="0 0 17 21" fill="none" xmlns="http://www.w3.org/2000/svg">
<path fill-rule="evenodd" clip-rule="evenodd" d="M8.49949 0C9.63471 0 15.5913 2.04499 16.3799 2.83353C17.0372 3.49082 17.0271 4.02186 16.9811 6.56683C16.963 7.58682 16.938 8.97653 16.938 10.9003C16.938 17.7958 9.05257 20.2626 8.71692 20.3638C8.64578 20.3858 8.57263 20.3958 8.49949 20.3958C8.42635 20.3958 8.35321 20.3858 8.28207 20.3638C7.94641 20.2626 0.0610098 17.7958 0.0610098 10.9003C0.0610098 8.97954 0.0359609 7.58982 0.0179256 6.56983C0.00969528 6.11484 0.00261512 5.72416 0.000285269 5.38559L0 5.00354C0.00859491 3.74845 0.126388 3.3265 0.620102 2.83353C1.40664 2.04499 7.36327 0 8.49949 0ZM8.49949 1.50294C7.64983 1.50294 2.28936 3.39062 1.67115 3.90663C1.4888 4.08999 1.48178 4.40861 1.52086 6.54178C1.5389 7.56978 1.56395 8.96651 1.56395 10.9003C1.56395 16.1115 7.29714 18.425 8.49849 18.8508C9.69883 18.423 15.435 16.0964 15.435 10.9003C15.435 8.96451 15.4601 7.56678 15.4791 6.53877C15.5172 4.40761 15.5102 4.08899 15.3168 3.89661C14.7106 3.39062 9.34915 1.50294 8.49949 1.50294ZM12.2283 7.35386C12.5218 7.64744 12.5218 8.12337 12.2283 8.41694L8.32265 12.3236C8.21043 12.4366 8.0655 12.5099 7.90994 12.5346L7.79161 12.544C7.59222 12.544 7.40084 12.4648 7.25957 12.3236L5.36387 10.4259C5.0713 10.1323 5.0713 9.65536 5.36487 9.36279C5.65744 9.06921 6.13437 9.06921 6.42795 9.36279L7.79161 10.7285L11.1662 7.35386C11.4598 7.06029 11.9347 7.06029 12.2283 7.35386Z" fill="#0D0140"/>
</svg>
