<svg width="20" height="21" viewBox="0 0 20 21" fill="none" xmlns="http://www.w3.org/2000/svg">
<path fill-rule="evenodd" clip-rule="evenodd" d="M10.4056 0C11.1312 0 11.8366 0.297959 12.3423 0.815839C12.847 1.33676 13.1257 2.05125 13.1044 2.77588C13.1064 2.93905 13.1602 3.12755 13.2575 3.29275C13.4186 3.56638 13.673 3.75894 13.975 3.83799C14.277 3.91299 14.5932 3.87245 14.8618 3.71333C16.159 2.97249 17.8099 3.41639 18.5508 4.70349L19.1822 5.79702C19.1984 5.82641 19.2126 5.85478 19.2247 5.88418C19.8957 7.15202 19.4477 8.74823 18.2011 9.47691C18.0197 9.58129 17.8728 9.72723 17.7714 9.90358C17.6143 10.1762 17.5708 10.5005 17.6498 10.7985C17.7309 11.1025 17.9245 11.3549 18.1971 11.5109C18.8123 11.8646 19.2714 12.4605 19.4548 13.1487C19.6382 13.8358 19.5379 14.5817 19.1801 15.1969L18.5072 16.3178C17.7664 17.5907 16.1154 18.0316 14.8314 17.2897C14.6601 17.1914 14.4625 17.1377 14.2659 17.1326H14.2598C13.9669 17.1326 13.6659 17.2573 13.447 17.4752C13.225 17.6971 13.1034 17.9931 13.1054 18.3072C13.0983 19.796 11.8873 21 10.4056 21H9.1357C7.64692 21 6.43583 19.7899 6.43583 18.3011C6.4338 18.1177 6.3811 17.9272 6.28279 17.762C6.12368 17.4843 5.86626 17.2857 5.56931 17.2066C5.27439 17.1276 4.9511 17.1711 4.68557 17.3252C4.04912 17.6799 3.30016 17.766 2.61506 17.5735C1.93097 17.3799 1.34012 16.9097 0.993519 16.2864L0.360104 15.1949C-0.380739 13.9098 0.0601185 12.2629 1.34316 11.5211C1.707 11.3113 1.933 10.9201 1.933 10.5005C1.933 10.0809 1.707 9.68872 1.34316 9.47893C0.0591051 8.73302 -0.380739 7.08209 0.359091 5.79702L1.04622 4.66903C1.77693 3.39815 3.42888 2.9502 4.71699 3.69002C4.89232 3.79441 5.08285 3.84711 5.27642 3.84914C5.90781 3.84914 6.43582 3.32822 6.44596 2.68771C6.44191 1.98132 6.72061 1.30332 7.22835 0.791516C7.73813 0.28073 8.41512 0 9.1357 0H10.4056ZM10.4056 1.5202H9.1357C8.82152 1.5202 8.52762 1.64283 8.30567 1.86376C8.08473 2.08571 7.96413 2.38063 7.96616 2.6948C7.94487 4.17649 6.73378 5.36934 5.2673 5.36934C4.79705 5.36427 4.34403 5.23758 3.95081 5.00246C3.39847 4.68829 2.67688 4.88186 2.35359 5.44433L1.66747 6.57232C1.3533 7.11756 1.54586 7.83814 2.10529 8.16346C2.93532 8.64384 3.4532 9.53974 3.4532 10.5005C3.4532 11.4613 2.93532 12.3562 2.10326 12.8376C1.54687 13.1598 1.35431 13.8764 1.67659 14.4338L2.31609 15.5364C2.47419 15.8212 2.73262 16.0269 3.0316 16.111C3.32956 16.1941 3.65792 16.1587 3.93155 16.0067C4.3339 15.7705 4.80212 15.6479 5.27237 15.6479C5.50445 15.6479 5.73653 15.6773 5.96355 15.7381C6.64865 15.9225 7.24356 16.3806 7.59624 16.9958C7.82528 17.3819 7.95197 17.8329 7.95602 18.293C7.95602 18.9518 8.48505 19.4798 9.1357 19.4798H10.4056C11.0532 19.4798 11.5822 18.9548 11.5852 18.3072C11.5812 17.5917 11.8609 16.9117 12.3727 16.3999C12.8774 15.8952 13.5828 15.5922 14.2881 15.6124C14.7503 15.6236 15.1952 15.7482 15.5874 15.9712C16.1519 16.2945 16.8725 16.1019 17.1988 15.5445L17.8718 14.4226C18.0218 14.1642 18.0653 13.8399 17.9853 13.5409C17.9062 13.2419 17.7076 12.9825 17.44 12.8294C16.8137 12.4687 16.3668 11.8869 16.1813 11.1897C15.9979 10.5056 16.0982 9.75865 16.456 9.14348C16.689 8.73809 17.0306 8.39655 17.44 8.16143C17.9893 7.84016 18.1819 7.12162 17.8626 6.56218C17.8495 6.53989 17.8373 6.51658 17.8272 6.49225L17.2333 5.46257C16.91 4.9001 16.1904 4.70653 15.6259 5.0278C15.0158 5.38859 14.2902 5.49196 13.5929 5.30853C12.8967 5.12813 12.3129 4.68727 11.9491 4.06501C11.716 3.67584 11.5893 3.22282 11.5852 2.76169C11.5944 2.41509 11.4727 2.10395 11.2518 1.87592C11.0319 1.64891 10.7228 1.5202 10.4056 1.5202ZM9.77509 7.068C11.6672 7.068 13.2067 8.60847 13.2067 10.5006C13.2067 12.3927 11.6672 13.9312 9.77509 13.9312C7.88295 13.9312 6.3435 12.3927 6.3435 10.5006C6.3435 8.60847 7.88295 7.068 9.77509 7.068ZM9.77509 8.5882C8.72109 8.5882 7.8637 9.4466 7.8637 10.5006C7.8637 11.5546 8.72109 12.411 9.77509 12.411C10.8291 12.411 11.6865 11.5546 11.6865 10.5006C11.6865 9.4466 10.8291 8.5882 9.77509 8.5882Z" fill="#0D0140"/>
</svg>
