<svg width="19" height="22" viewBox="0 0 19 22" fill="none" xmlns="http://www.w3.org/2000/svg">
<path fill-rule="evenodd" clip-rule="evenodd" d="M7.49456 19.5503C8.0246 20.1407 8.70507 20.4651 9.41111 20.4651H9.41214C10.1213 20.4651 10.8048 20.1407 11.3359 19.5493C11.6203 19.2352 12.1053 19.2096 12.4195 19.493C12.7346 19.7765 12.7602 20.2625 12.4768 20.5767C11.65 21.4945 10.5623 22 9.41214 22H9.41009C8.26302 21.999 7.17735 21.4935 6.35363 20.5756C6.07018 20.2615 6.09577 19.7754 6.41093 19.493C6.72609 19.2086 7.21111 19.2341 7.49456 19.5503ZM9.46207 0C14.0104 0 17.0659 3.54251 17.0659 6.8507C17.0659 8.55237 17.4987 9.27377 17.9582 10.0392C18.4125 10.7943 18.9272 11.6518 18.9272 13.2727C18.5701 17.4138 14.2468 17.7514 9.46207 17.7514C4.67733 17.7514 0.35305 17.4138 1.35441e-05 13.3381C-0.00304256 11.6518 0.511655 10.7943 0.965981 10.0392L1.12637 9.76918C1.52128 9.09046 1.85826 8.35218 1.85826 6.8507C1.85826 3.54251 4.9137 0 9.46207 0ZM9.46207 1.53488C5.88579 1.53488 3.39314 4.33656 3.39314 6.8507C3.39314 8.97805 2.80272 9.9614 2.28086 10.8291C1.86235 11.526 1.53184 12.0765 1.53184 13.2727C1.70272 15.2025 2.97668 16.2166 9.46207 16.2166C15.9117 16.2166 17.2255 15.1575 17.3954 13.2061C17.3923 12.0765 17.0618 11.526 16.6433 10.8291C16.1214 9.9614 15.531 8.97805 15.531 6.8507C15.531 4.33656 13.0384 1.53488 9.46207 1.53488Z" fill="#0D0140"/>
</svg>
