<svg width="21" height="21" viewBox="0 0 21 21" fill="none" xmlns="http://www.w3.org/2000/svg">
<path fill-rule="evenodd" clip-rule="evenodd" d="M9.78633 0.0375287C10.2132 0.0375287 10.5596 0.383948 10.5596 0.810785C10.5596 1.23762 10.2132 1.58404 9.78633 1.58404H5.93139C3.26727 1.58404 1.54651 3.40893 1.54651 6.23286V14.8047C1.54651 17.6286 3.26727 19.4535 5.93139 19.4535H15.029C17.6931 19.4535 19.4149 17.6286 19.4149 14.8047V10.6518C19.4149 10.2249 19.7613 9.8785 20.1882 9.8785C20.615 9.8785 20.9614 10.2249 20.9614 10.6518V14.8047C20.9614 18.5101 18.5767 21 15.029 21H5.93139C2.38369 21 0 18.5101 0 14.8047V6.23286C0 2.52741 2.38369 0.0375287 5.93139 0.0375287H9.78633ZM18.766 0.943373L20.0207 2.19811C20.6321 2.80847 20.9682 3.61987 20.9672 4.48386C20.9672 5.34784 20.6311 6.15821 20.0207 6.76754L12.2789 14.5094C11.7108 15.0775 10.9541 15.3909 10.1499 15.3909H6.28771C6.07944 15.3909 5.87943 15.3064 5.73406 15.1569C5.58868 15.0084 5.5093 14.8073 5.51445 14.598L5.61137 10.7019C5.63096 9.92655 5.94335 9.19763 6.49185 8.6481H6.49288L14.1976 0.943373C15.4575 -0.314458 17.5061 -0.314458 18.766 0.943373ZM13.5629 3.76421L7.58575 9.742C7.31872 10.009 7.16716 10.3637 7.15788 10.74L7.08055 13.8444H10.1499C10.5416 13.8444 10.9087 13.6928 11.186 13.4155L17.1993 7.40058L13.5629 3.76421ZM15.2905 2.03727L14.6558 2.67031L18.2922 6.30771L18.9279 5.67364C19.2454 5.35609 19.4207 4.93338 19.4207 4.48386C19.4207 4.03331 19.2454 3.60956 18.9279 3.29201L17.6731 2.03727C17.0164 1.38258 15.9483 1.38258 15.2905 2.03727Z" fill="#0D0140"/>
</svg>
