<svg width="13" height="10" viewBox="0 0 13 10" fill="none" xmlns="http://www.w3.org/2000/svg">
<path d="M4.75013 9.76101C4.639 9.76065 4.52914 9.73744 4.42736 9.69283C4.32558 9.64821 4.23406 9.58314 4.1585 9.50166L0.219684 5.31161C0.0724459 5.1547 -0.00642912 4.94572 0.000410427 4.73066C0.00724997 4.51559 0.0992438 4.31205 0.256155 4.16481C0.413065 4.01758 0.622039 3.9387 0.837105 3.94554C1.05217 3.95238 1.25571 4.04437 1.40295 4.20128L4.74203 7.75918L11.558 0.302993C11.6271 0.21686 11.7132 0.145777 11.8108 0.0941094C11.9085 0.0424418 12.0156 0.011281 12.1258 0.00254073C12.2359 -0.00619951 12.3466 0.00766549 12.4512 0.0432839C12.5558 0.0789024 12.6519 0.135522 12.7338 0.209666C12.8157 0.28381 12.8816 0.373912 12.9274 0.474439C12.9732 0.574966 12.998 0.683795 13.0002 0.794242C13.0024 0.904689 12.982 1.01442 12.9402 1.1167C12.8985 1.21898 12.8363 1.31164 12.7574 1.389L5.34987 9.49356C5.27501 9.57651 5.18382 9.64309 5.082 9.68912C4.98019 9.73514 4.86996 9.75962 4.75823 9.76101H4.75013Z" fill="#FDFDFD"/>
</svg>
