<svg width="10" height="15" viewBox="0 0 10 15" fill="none" xmlns="http://www.w3.org/2000/svg">
<path d="M1.13729 0.000258289C0.915594 -0.00461777 0.697887 0.0596488 0.514436 0.184222C0.330985 0.308796 0.190905 0.487519 0.113673 0.695384C0.03644 0.903249 0.0258921 1.12998 0.0834948 1.34412C0.141098 1.55826 0.263989 1.74904 0.435083 1.8901L6.96331 7.48273L0.435083 13.0734C0.316729 13.1604 0.217609 13.2708 0.143933 13.3979C0.0702566 13.525 0.0236104 13.6659 0.00691494 13.8118C-0.00978054 13.9578 0.00383479 14.1055 0.0469081 14.246C0.0899815 14.3864 0.161585 14.5164 0.257234 14.6279C0.352884 14.7394 0.470519 14.8298 0.602773 14.8937C0.735027 14.9576 0.879051 14.9935 1.02582 14.9992C1.1726 15.0048 1.31896 14.9802 1.45574 14.9267C1.59253 14.8732 1.71679 14.792 1.82074 14.6882L9.29497 8.29328C9.41234 8.19312 9.50659 8.06879 9.57122 7.92868C9.63585 7.78856 9.66932 7.63605 9.66932 7.48175C9.66932 7.32745 9.63585 7.17494 9.57122 7.03482C9.50659 6.8947 9.41234 6.77026 9.29497 6.67009L1.82074 0.269006C1.63193 0.101299 1.38976 0.00595378 1.13729 1.21838e-05V0.000258289Z" fill="#0D0140"/>
</svg>
