<svg width="21" height="20" viewBox="0 0 21 20" fill="none" xmlns="http://www.w3.org/2000/svg">
<path fill-rule="evenodd" clip-rule="evenodd" d="M14.8983 0C18.2632 0 21.0003 2.73709 21.0003 6.10301V13.4057C21.0003 16.7706 18.2632 19.5087 14.8983 19.5087H6.10301C2.73811 19.5087 0 16.7706 0 13.4057V6.10301C0 2.73709 2.73811 0 6.10301 0H14.8983ZM14.8983 1.52626H6.10301C3.57959 1.52626 1.52626 3.57959 1.52626 6.10301V13.4057C1.52626 15.9291 3.57959 17.9824 6.10301 17.9824H14.8983C17.4218 17.9824 19.4741 15.9291 19.4741 13.4057V13.1208L16.1184 13.1214C14.1882 13.1214 12.6172 11.5514 12.6162 9.62216C12.6162 7.69093 14.1872 6.1199 16.1184 6.11888L19.4741 6.11827V6.10301C19.4741 3.57959 17.4218 1.52626 14.8983 1.52626ZM19.4741 7.64453L16.1184 7.64514C15.0287 7.64616 14.1424 8.53241 14.1424 9.62114C14.1424 10.7089 15.0297 11.5951 16.1184 11.5951L19.4741 11.5945V7.64453ZM16.584 8.79493C17.0053 8.79493 17.3472 9.13681 17.3472 9.55806C17.3472 9.9793 17.0053 10.3212 16.584 10.3212H16.2666C15.8453 10.3212 15.5035 9.9793 15.5035 9.55806C15.5035 9.13681 15.8453 8.79493 16.2666 8.79493H16.584ZM10.8721 4.61755C11.2933 4.61755 11.6352 4.95943 11.6352 5.38068C11.6352 5.80193 11.2933 6.14381 10.8721 6.14381H5.37854C4.9573 6.14381 4.61541 5.80193 4.61541 5.38068C4.61541 4.95943 4.9573 4.61755 5.37854 4.61755H10.8721Z" fill="#00CC9A"/>
</svg>
