<svg width="19" height="19" viewBox="0 0 19 19" fill="none" xmlns="http://www.w3.org/2000/svg">
<path d="M9.50072 13.9801V11.6156" stroke="#0D0140" stroke-width="2" stroke-linecap="round" stroke-linejoin="round"/>
<path fill-rule="evenodd" clip-rule="evenodd" d="M15.1958 3.40503C16.7496 3.40503 18 4.68187 18 6.25694V9.46301C15.7382 10.8051 12.7501 11.6159 9.4954 11.6159C6.24067 11.6159 3.26176 10.8051 1 9.46301V6.24762C1 4.67255 2.2596 3.40503 3.81341 3.40503H15.1958Z" stroke="#0D0140" stroke-width="2" stroke-linecap="round" stroke-linejoin="round"/>
<path d="M12.7181 3.40082V3.05971C12.7181 1.92268 11.8079 1 10.6862 1H8.31414C7.19245 1 6.28223 1.92268 6.28223 3.05971V3.40082" stroke="#0D0140" stroke-width="2" stroke-linecap="round" stroke-linejoin="round"/>
<path d="M1.02246 12.8674L1.19623 15.2058C1.31392 16.7818 2.60937 17.9999 4.16778 17.9999H14.8321C16.3905 17.9999 17.686 16.7818 17.8036 15.2058L17.9774 12.8674" stroke="#0D0140" stroke-width="2" stroke-linecap="round" stroke-linejoin="round"/>
</svg>
