<svg width="15" height="8" viewBox="0 0 15 8" fill="none" xmlns="http://www.w3.org/2000/svg">
<path d="M13.9267 7.50488C13.6765 7.50537 13.434 7.41822 13.2413 7.25856L7.50085 2.46056L1.74969 7.0872C1.64014 7.17616 1.51409 7.2426 1.37878 7.28268C1.24348 7.32277 1.10158 7.33573 0.961252 7.3208C0.820923 7.30587 0.684928 7.26335 0.561084 7.1957C0.437239 7.12804 0.327987 7.03657 0.239607 6.92655C0.150645 6.817 0.0842104 6.69095 0.0441217 6.55565C0.00403308 6.42034 -0.00891918 6.27844 0.00600942 6.13812C0.020938 5.99779 0.063453 5.86179 0.131111 5.73795C0.198769 5.6141 0.290236 5.50485 0.400254 5.41647L6.82614 0.243635C7.01777 0.0861135 7.25814 0 7.50621 0C7.75427 0 7.99465 0.0861135 8.18628 0.243635L14.6122 5.59854C14.7206 5.68844 14.8103 5.79886 14.876 5.92347C14.9417 6.04807 14.9821 6.18442 14.9951 6.32469C15.008 6.46497 14.9931 6.60641 14.9513 6.74093C14.9095 6.87545 14.8416 7.0004 14.7514 7.10862C14.6517 7.23147 14.5261 7.33073 14.3835 7.39924C14.2409 7.46776 14.0849 7.50384 13.9267 7.50488Z" fill="#0D0140"/>
</svg>
