<svg width="18" height="20" viewBox="0 0 18 20" fill="none" xmlns="http://www.w3.org/2000/svg">
<path d="M9.00008 19.7179C8.65063 19.7234 8.30584 19.6372 8.00008 19.4679L7.70008 19.2979C5.36335 17.9759 3.41934 16.0574 2.06655 13.7383C0.713767 11.4193 0.000670048 8.78274 8.0152e-05 6.09795V5.95795C-0.00308979 5.60384 0.0878186 5.25523 0.263514 4.94777C0.439209 4.6403 0.693391 4.385 1.00008 4.20795L8.00008 0.267949C8.30412 0.0924127 8.64901 0 9.00008 0C9.35115 0 9.69604 0.0924127 10.0001 0.267949L17.0001 4.20795C17.3068 4.385 17.561 4.6403 17.7366 4.94777C17.9123 5.25523 18.0033 5.60384 18.0001 5.95795V6.09795C17.9975 8.78472 17.2814 11.4226 15.925 13.7418C14.5686 16.0611 12.6205 17.9785 10.2801 19.2979L9.98008 19.4679C9.68023 19.6339 9.34277 19.72 9.00008 19.7179ZM9.00008 2.01795L2.00008 5.95795V6.09795C2.00176 8.42905 2.62308 10.7178 3.80038 12.7298C4.97769 14.7417 6.66866 16.4046 8.70008 17.5479L9.00008 17.7179L9.30008 17.5479C11.3315 16.4046 13.0225 14.7417 14.1998 12.7298C15.3771 10.7178 15.9984 8.42905 16.0001 6.09795V5.95795L9.00008 2.01795Z" fill="#0D0140"/>
</svg>
