<svg width="20" height="20" viewBox="0 0 20 20" fill="none" xmlns="http://www.w3.org/2000/svg">
<path fill-rule="evenodd" clip-rule="evenodd" d="M19.2821 12.7413C19.6953 12.7723 20.0045 13.1335 19.9735 13.5467L19.7834 16.0569C19.6263 18.128 17.8784 19.7497 15.8024 19.7497H4.19675C2.12074 19.7497 0.372882 18.128 0.215805 16.0569L0.0257126 13.5467C-0.00530259 13.1335 0.304849 12.7723 0.718051 12.7413C1.13325 12.7263 1.49143 13.0195 1.52344 13.4337L1.71254 15.9429C1.81058 17.2355 2.90112 18.249 4.19675 18.249H15.8024C17.098 18.249 18.1896 17.2355 18.2866 15.9429L18.4767 13.4337C18.5087 13.0195 18.8759 12.7253 19.2821 12.7413ZM11.2904 0C12.7941 0 14.0398 1.12681 14.2274 2.58029L16.1979 2.58116C18.2949 2.58116 19.9998 4.29099 19.9998 6.39402V9.8347C19.9998 10.1018 19.8577 10.348 19.6286 10.482C17.1591 11.9282 14.0308 12.7717 10.7498 12.8843L10.7501 14.6838C10.7501 15.098 10.414 15.4341 9.99978 15.4341C9.58558 15.4341 9.24942 15.098 9.24942 14.6838L9.24877 12.8845C5.9711 12.773 2.84254 11.9293 0.371181 10.482C0.141069 10.348 0 10.1018 0 9.8347V6.38402C0 4.28699 1.70983 2.58116 3.81186 2.58116L5.77213 2.58029C5.95975 1.12681 7.20548 0 8.70915 0H11.2904ZM16.1979 4.08189H3.81186C2.53724 4.08189 1.50073 5.1144 1.50073 6.38402V9.39749C3.8756 10.6879 6.86959 11.3951 9.98587 11.3965L9.99978 11.3952L10.0109 11.3956L10.4873 11.3906C13.4345 11.3204 16.246 10.6211 18.499 9.39749V6.39402C18.499 5.1184 17.4675 4.08189 16.1979 4.08189ZM11.2904 1.50073H8.70915C8.03548 1.50073 7.46681 1.95923 7.29881 2.58054H12.7008C12.5328 1.95923 11.9641 1.50073 11.2904 1.50073Z" fill="#7850AD"/>
</svg>
