<svg width="21" height="22" viewBox="0 0 21 22" fill="none" xmlns="http://www.w3.org/2000/svg">
<path fill-rule="evenodd" clip-rule="evenodd" d="M11.9866 14.62C13.2183 14.62 14.2208 15.6154 14.2208 16.8389V19.9857C14.2208 20.2486 14.4315 20.4594 14.7016 20.4655H16.6515C18.188 20.4655 19.4371 19.2318 19.4371 17.7157V8.79095C19.43 8.26921 19.1814 7.77817 18.7548 7.45183L12.0101 2.07287C11.1047 1.35574 9.83825 1.35574 8.92982 2.07491L2.23118 7.44979C1.78821 7.78636 1.53962 8.2774 1.53451 8.80834V17.7157C1.53451 19.2318 2.7836 20.4655 4.32015 20.4655H6.28842C6.56565 20.4655 6.79071 20.2455 6.79071 19.9755C6.79071 19.9161 6.79787 19.8568 6.81015 19.8005V16.8389C6.81015 15.6226 7.80656 14.6282 9.02905 14.62H11.9866ZM16.6515 22H14.6832C13.5559 21.9734 12.6863 21.0885 12.6863 19.9857V16.8389C12.6863 16.4614 12.3722 16.1545 11.9866 16.1545H9.03417C8.65668 16.1566 8.34466 16.4645 8.34466 16.8389V19.9755C8.34466 20.0522 8.33443 20.1259 8.31295 20.1954C8.20246 21.2082 7.337 22 6.28842 22H4.32015C1.93757 22 0 20.0778 0 17.7157V8.80118C0.0102301 7.78431 0.478767 6.85337 1.28796 6.24059L7.97331 0.874926C9.44541 -0.291301 11.4965 -0.291301 12.9656 0.87288L19.699 6.24366C20.4898 6.84621 20.9583 7.7751 20.9716 8.7797V17.7157C20.9716 20.0778 19.0341 22 16.6515 22Z" fill="#9CA4AB"/>
</svg>
