<svg width="17" height="13" viewBox="0 0 17 13" fill="none" xmlns="http://www.w3.org/2000/svg">
<path d="M6.21146 12.7639C6.06614 12.7634 5.92248 12.7331 5.78939 12.6747C5.6563 12.6164 5.53663 12.5313 5.43781 12.4247L0.287267 6.94567C0.0947331 6.74048 -0.00840697 6.46722 0.00053669 6.18599C0.00948035 5.90476 0.129775 5.63861 0.334958 5.44607C0.54014 5.25354 0.813403 5.1504 1.09463 5.15934C1.37586 5.16829 1.64202 5.28858 1.83455 5.49376L6.20086 10.1462L15.1136 0.396206C15.2041 0.283575 15.3166 0.190624 15.4443 0.123061C15.572 0.0554986 15.7121 0.0147514 15.8561 0.00332235C16.0001 -0.00810673 16.1449 0.0100237 16.2817 0.0565998C16.4184 0.103176 16.5442 0.177214 16.6513 0.274168C16.7583 0.371121 16.8445 0.488943 16.9044 0.620395C16.9643 0.751848 16.9966 0.894157 16.9995 1.03858C17.0024 1.18301 16.9757 1.3265 16.9212 1.46024C16.8666 1.59398 16.7852 1.71516 16.6821 1.81632L6.9957 12.4141C6.89782 12.5226 6.77856 12.6097 6.64543 12.6699C6.51229 12.7301 6.36815 12.7621 6.22205 12.7639H6.21146Z" fill="#00C566"/>
</svg>
