<svg width="24" height="24" viewBox="0 0 24 24" fill="none" xmlns="http://www.w3.org/2000/svg">
<path d="M23.8067 9.77864C23.9134 9.77864 23.9999 9.86512 23.9999 9.97181V11.9999C23.9999 12.759 23.9294 13.5012 23.7941 14.2212C22.748 19.8138 17.821 24.0403 11.9153 23.9995C5.28868 23.9539 -0.0146414 18.5996 3.0369e-05 11.9729C0.0146084 5.35807 5.38168 0 11.9999 0C15.2424 0 18.1843 1.28634 20.3443 3.37583C20.4223 3.45125 20.4243 3.57556 20.3476 3.65225L17.4783 6.5215C17.4044 6.59537 17.2851 6.59729 17.2094 6.52525C15.8537 5.23483 14.0195 4.4426 11.9999 4.4426C7.82943 4.4426 4.47109 7.77709 4.44277 11.9475C4.41432 16.1453 7.8088 19.5572 11.9999 19.5572C15.4005 19.5572 18.2766 17.3108 19.225 14.2212H12.1931C12.0864 14.2212 11.9999 14.1348 11.9999 14.0281V9.97176C11.9999 9.86507 12.0864 9.77859 12.1931 9.77859H23.8067V9.77864Z" fill="#2196F3"/>
<path d="M23.8062 9.77864H22.3576C22.4643 9.77864 22.5507 9.86512 22.5507 9.97181V11.9999C22.5507 12.759 22.4802 13.5012 22.345 14.2212C21.347 19.5566 16.8168 23.6485 11.2744 23.9782C11.4864 23.9907 11.6999 23.998 11.9149 23.9995C17.8206 24.0403 22.7476 19.8138 23.7937 14.2212C23.9289 13.5012 23.9994 12.759 23.9994 11.9999V9.97176C23.9994 9.86512 23.9129 9.77864 23.8062 9.77864Z" fill="#1E88E5"/>
<path d="M5.13562 8.83505L1.4912 6.20181C3.53579 2.50382 7.4757 0 12 0C15.2424 0 18.1844 1.28634 20.3443 3.37583C20.4223 3.45125 20.4243 3.57556 20.3476 3.65225L17.4784 6.5215C17.4046 6.59523 17.2853 6.59753 17.2098 6.52562C15.8541 5.23497 14.0197 4.44265 12 4.44265C8.95629 4.44265 6.33271 6.24189 5.13562 8.83505Z" fill="#F44336"/>
<path d="M4.08299 8.07484L5.13509 8.83501C6.22774 6.46811 8.50904 4.76346 11.2132 4.48385C11.2336 4.48165 11.2531 4.47898 11.2739 4.47701C11.0359 4.45442 10.7947 4.4426 10.5508 4.4426C7.80123 4.4426 5.405 5.89212 4.08299 8.07484Z" fill="#E53935"/>
<path d="M18.8955 3.37583C18.9735 3.45125 18.9755 3.57556 18.8988 3.65229L16.5699 5.98117C16.793 6.15086 17.0066 6.33236 17.2093 6.52529C17.2849 6.59734 17.4043 6.59542 17.4782 6.52154L20.3474 3.65229C20.4242 3.57556 20.4221 3.45129 20.3441 3.37583C18.1842 1.28634 15.2423 0 11.9998 0C11.7565 0 11.5151 0.00810933 11.2753 0.0224061C14.2303 0.198421 16.8975 1.44309 18.8955 3.37583Z" fill="#E53935"/>
<path d="M20.8026 20.155C18.6112 22.5198 15.4782 23.9998 11.9999 23.9998C7.30183 23.9998 3.23441 21.3 1.26464 17.3668L4.98533 14.8171C6.10184 17.5952 8.82198 19.5572 11.9999 19.5572C13.9942 19.5572 15.808 18.7845 17.1582 17.5223L20.8026 20.155Z" fill="#4CAF50"/>
<path d="M4.98483 14.8172L3.88768 15.569C5.16197 17.9429 7.66784 19.5573 10.5507 19.5573C10.7945 19.5573 11.0355 19.5453 11.2734 19.5228C8.4117 19.2499 6.01523 17.3812 4.98483 14.8172Z" fill="#43A047"/>
<path d="M11.9998 23.9999C15.4781 23.9999 18.6111 22.5199 20.8025 20.1551L19.9099 19.5103C17.8523 22.071 14.7656 23.7698 11.2773 23.9781C11.5163 23.9923 11.7572 23.9999 11.9998 23.9999Z" fill="#43A047"/>
<path d="M4.44265 12C4.44265 12.9957 4.6353 13.9466 4.98541 14.8172L1.26468 17.3669C0.455388 15.7521 0 13.9292 0 12C0 9.89701 0.540841 7.92049 1.49118 6.20187L5.1356 8.83511C4.69085 9.79749 4.44265 10.87 4.44265 12Z" fill="#FFC107"/>
<path d="M3.88844 15.569L4.98559 14.8172C4.63548 13.9465 4.44283 12.9957 4.44283 12C4.44283 10.87 4.69103 9.79747 5.13578 8.83508L4.08367 8.07491C3.40047 9.20295 3.00396 10.5267 2.9943 11.9476C2.9854 13.2579 3.3101 14.4917 3.88844 15.569Z" fill="#FFB300"/>
</svg>
